<?xml version="1.0" encoding="UTF-8"?>
<svg width="216px" height="67px" viewBox="0 0 216 67" version="1.1" xmlns="http://www.w3.org/2000/svg" xmlns:xlink="http://www.w3.org/1999/xlink">
    <title>logo</title>
    <defs>
        <polygon id="path-1" points="0.01452 0.163432143 17.22972 0.163432143 17.22972 25.7232143 0.01452 25.7232143"></polygon>
        <polygon id="path-3" points="0 66.5046786 216 66.5046786 216 0 0 0"></polygon>
    </defs>
    <g id="Symbols" stroke="none" stroke-width="1" fill="none" fill-rule="evenodd">
        <g id="Group-65">
            <path d="M65.71848,13.1083107 C67.51308,13.1083107 67.65948,13.1908643 67.67688,14.2150071 L67.68888,14.7539982 C67.70448,15.398275 67.71708,15.9546143 67.71708,17.1127571 L67.71708,21.8260875 C67.71708,22.7545161 68.01288,27.3876857 73.85388,27.3876857 C75.46308,27.3876857 76.95108,26.8804 77.93628,25.9962393 C79.35048,24.7268286 80.03748,22.7240071 80.03748,19.8717214 L80.03748,15.2313732 C80.03748,14.0798107 80.12088,13.5886768 80.35548,13.3553732 C80.60628,13.1053196 81.11868,13.1053196 81.96828,13.1083107 L82.19328,13.1083107 C82.41828,13.1083107 82.58868,12.8738107 82.58868,12.5633375 C82.58868,12.1709089 82.43988,12.0034089 82.09128,12.0034089 C81.96828,12.0034089 81.59508,12.0177661 81.19068,12.0333196 C80.63508,12.0542571 79.79568,12.0859625 79.40628,12.0859625 C78.52428,12.0859625 77.63148,12.0500696 77.03988,12.0261411 L76.96068,12.02315 C76.68408,12.0117839 76.48248,12.0034089 76.37148,12.0034089 C76.20048,12.0034089 75.99648,12.0937393 75.99648,12.5220607 C75.99648,12.6973375 75.99648,13.1083107 76.37148,13.1083107 L76.51668,13.1083107 C77.47968,13.1089089 78.06408,13.1071143 78.38868,13.4074179 C78.70548,13.7017393 78.82908,14.3424268 78.82908,15.6925964 L78.82908,19.7676321 C78.82908,23.823525 77.44428,25.7952393 74.59548,25.7952393 C70.75548,25.7952393 70.18188,22.6899089 70.18188,20.8384357 L70.18188,17.1127571 C70.18188,15.9546143 70.19448,15.398275 70.21008,14.7539982 L70.22208,14.2138107 C70.23948,13.1908643 70.38588,13.1083107 72.18048,13.1083107 C72.61728,13.1083107 72.61728,12.6524714 72.61728,12.4807839 C72.61728,12.1511679 72.41868,12.0034089 72.22248,12.0034089 C72.19188,12.0034089 72.10548,12.0064 71.97588,12.0111857 L71.78928,12.0177661 C71.13408,12.0416946 69.91548,12.0859625 68.93808,12.0859625 C67.99128,12.0859625 66.77928,12.0422929 66.11688,12.0183643 L65.94648,12.0117839 C65.80488,12.0069982 65.70948,12.0034089 65.67648,12.0034089 C65.48028,12.0034089 65.28168,12.1511679 65.28168,12.4807839 C65.28168,12.6524714 65.28168,13.1083107 65.71848,13.1083107" id="Fill-1" fill="#FFFFFF"></path>
            <path d="M81.21738,18.635392 C81.21738,18.747258 81.21738,19.045767 81.59178,19.090633 C82.47858,19.179767 82.62138,19.4663116 82.62138,20.1171687 L82.62138,22.9377491 C82.62138,24.6994902 82.55658,25.6991062 82.51338,25.8199455 C82.42518,26.0269277 82.40658,26.1860527 81.67458,26.1860527 C81.01278,26.1860527 80.86578,26.1860527 80.86578,26.7047045 C80.86578,27.0648295 81.06918,27.1402045 81.24078,27.1402045 C81.33078,27.1402045 81.43998,27.1372134 81.60438,27.1318295 C81.99738,27.1198652 82.65498,27.0989277 84.02838,27.0989277 C85.17198,27.0989277 85.56618,27.1240527 85.73538,27.1354187 L85.76358,27.1372134 C85.79898,27.139008 85.82418,27.1402045 85.84398,27.1402045 C86.12058,27.1402045 86.26098,26.979883 86.26098,26.6634277 C86.26098,26.1860527 86.04318,26.1860527 85.53918,26.1860527 C84.85458,26.1860527 84.71238,26.1860527 84.71238,24.9758652 L84.71238,19.8701062 C84.71238,19.791142 84.74658,19.7163652 84.80598,19.665517 C85.14018,19.380767 85.92978,18.9685973 86.48538,18.9685973 C88.44498,18.9685973 88.58658,20.0944366 88.58658,21.9494991 L88.58658,25.6350973 C88.58658,26.1232402 88.47738,26.1860527 87.51078,26.1860527 C87.16698,26.1860527 87.12258,26.4361062 87.12258,26.6843652 C87.12258,27.1186687 87.41658,27.1402045 87.47538,27.1402045 C87.51738,27.1402045 87.57018,27.1378116 87.64998,27.1342223 C87.88218,27.1228562 88.36578,27.0989277 89.64258,27.0989277 C90.25818,27.0989277 91.45758,27.1402045 91.72878,27.1402045 C92.05998,27.1402045 92.22798,26.979883 92.22798,26.6634277 C92.22798,26.533017 92.22798,26.1860527 91.81098,26.1860527 C90.67998,26.1860527 90.67998,25.9036955 90.67998,25.6548384 L90.67998,20.715383 C90.67998,18.5887312 89.63718,17.4174277 87.74418,17.4174277 C86.79018,17.4174277 85.89258,17.9031777 85.14078,18.3775616 C85.05618,18.4308027 84.89478,18.479258 84.80658,18.429008 C84.71718,18.3775616 84.72498,18.2387759 84.72918,18.1364812 C84.73458,17.9791509 84.74118,17.8559187 84.74658,17.750633 C84.75138,17.6620973 84.75498,17.6004812 84.75498,17.5651866 C84.75498,17.457508 84.75498,17.1296866 84.48258,17.1296866 C84.35478,17.1296866 84.25218,17.1901062 84.10518,17.2768473 C83.81058,17.4497312 83.19618,17.8110527 81.55278,18.1424634 C81.34278,18.1825437 81.21738,18.2202312 81.21738,18.635392" id="Fill-3" fill="#FFFFFF"></path>
            <path d="M93.24816,27.1403839 C93.33816,27.1403839 93.44676,27.1373929 93.61176,27.1320089 C94.00416,27.1194464 94.64796,27.0991071 96.02016,27.0991071 C97.07376,27.0991071 97.45716,27.1242321 97.62276,27.1355982 L97.64976,27.1367946 C97.68696,27.1391875 97.71276,27.1403839 97.73376,27.1403839 C98.01036,27.1403839 98.15016,26.9800625 98.15016,26.6636071 C98.15016,26.1856339 97.83936,26.1856339 97.44636,26.1856339 C96.76236,26.1856339 96.70716,26.1856339 96.70716,24.9760446 L96.70716,20.5295179 C96.70716,19.0297946 96.73836,18.0606875 96.79956,17.6521071 C96.80676,17.6102321 96.90576,17.1298661 96.47436,17.1298661 C96.34656,17.1298661 96.24216,17.1914821 96.09816,17.2758304 C95.80416,17.4499107 95.19096,17.8106339 93.54516,18.1420446 C93.33816,18.182125 93.20976,18.3711607 93.20976,18.6355714 C93.20976,18.7474375 93.20976,19.0453482 93.58416,19.0902143 C94.47036,19.1793482 94.61316,19.3187321 94.61316,19.9701875 L94.61316,22.9379286 C94.61316,24.6996696 94.54896,25.6986875 94.50576,25.8195268 C94.41756,26.0271071 94.28316,26.1856339 93.82416,26.1856339 C93.16056,26.1856339 92.87136,26.1856339 92.87136,26.7042857 C92.87136,27.0650089 93.07596,27.1403839 93.24816,27.1403839" id="Fill-5" fill="#FFFFFF"></path>
            <path d="M95.6499,14.6877161 C96.4167,14.6877161 96.9321,14.0153232 96.9321,13.3877964 C96.9321,12.758475 96.4167,12.0854839 95.6499,12.0854839 C94.8819,12.0854839 94.3659,12.758475 94.3659,13.3877964 C94.3659,14.0153232 94.8819,14.6877161 95.6499,14.6877161" id="Fill-7" fill="#FFFFFF"></path>
            <path d="M98.59392,18.797508 C98.63352,18.797508 99.06252,18.7669991 99.17172,18.990133 C99.28032,19.213267 99.80532,20.6304366 100.27752,21.9076241 C100.83972,23.4270884 101.99232,26.2560437 102.05352,26.3918384 C102.36312,27.0755973 102.50472,27.3878652 102.82512,27.3878652 C103.12152,27.3878652 103.36632,27.1180705 103.99932,25.606383 C104.12172,25.3204366 105.78852,21.5630527 106.28172,20.4037134 C107.02392,18.6593205 106.83552,18.8345973 107.96592,18.7783652 L108.00372,18.7783652 C108.26532,18.7496509 108.42492,18.6168473 108.42492,18.2872312 C108.42492,18.035383 108.33132,17.767383 108.07332,17.767383 C107.77692,17.767383 107.42652,17.7775527 107.13132,17.7877223 L107.11152,17.7883205 C106.80132,17.7990884 106.49892,17.8086598 106.21212,17.8086598 C105.92952,17.8086598 105.62652,17.7984902 105.33372,17.7889187 L105.29232,17.7877223 C105.00552,17.7775527 104.59572,17.767383 104.32332,17.767383 C104.01072,17.767383 103.95672,18.0694812 103.95672,18.2872312 C103.95672,18.6318027 104.10852,18.744267 104.30592,18.744267 C105.35772,18.744267 105.52752,18.811267 105.52752,19.0679009 C105.52752,19.531517 105.25692,20.2559545 103.71972,23.6735527 C103.67352,23.7758473 103.58712,23.9361687 103.47732,23.9403562 C103.36632,23.9385616 103.26552,23.7704634 103.22292,23.668767 C102.42732,21.762258 101.56872,19.4082848 101.56872,18.9775705 C101.56872,18.9291152 101.52072,18.7717848 101.73852,18.7598205 C101.94972,18.7478562 102.23412,18.7574277 102.51252,18.7562312 L102.62232,18.7568295 C102.86712,18.7568295 102.96192,18.5073741 102.96192,18.2908205 C102.96192,17.9558205 102.82212,17.767383 102.59772,17.767383 C102.40092,17.767383 100.34712,17.8086598 100.14252,17.8086598 C99.82452,17.8086598 98.17692,17.7679812 98.17452,17.7679812 C97.76412,17.7679812 97.76412,18.1765616 97.76412,18.3542312 C97.76412,18.7646062 98.09412,18.797508 98.59392,18.797508" id="Fill-9" fill="#FFFFFF"></path>
            <path d="M110.34612,20.174717 C110.66052,18.9238509 111.33072,18.2897437 112.33752,18.2897437 C112.82112,18.2897437 113.94612,18.4596366 113.94612,20.035333 C113.94612,20.437333 113.79372,20.5049312 113.45352,20.5049312 L110.61012,20.5049312 C110.52552,20.5049312 110.41092,20.4935652 110.35872,20.4265652 C110.30772,20.361958 110.32632,20.253083 110.34612,20.174717 M112.70952,27.3873866 C115.51692,27.3873866 116.47092,24.792333 116.47092,24.5638152 C116.47092,24.3634134 116.16732,24.1079759 115.92972,24.1079759 C115.74132,24.1079759 115.63392,24.2724848 115.52772,24.4340027 C115.50432,24.4692973 115.48032,24.5063866 115.44912,24.5476634 C114.89592,25.3391009 114.20412,25.6920473 113.20452,25.6920473 C111.13272,25.6920473 110.02992,23.8411723 110.02992,22.5053598 C110.02992,22.2427437 110.03892,22.0076455 110.05812,21.7869045 C110.07012,21.6475205 110.11992,21.5422348 110.26152,21.5422348 L115.78632,21.5422348 C115.91172,21.5422348 116.24412,21.5422348 116.24412,21.1061366 C116.24412,20.7202884 116.13432,17.335592 112.33752,17.335592 C110.20512,17.335592 107.99892,19.261842 107.99892,22.4844223 C107.99892,25.5999223 109.71612,27.3873866 112.70952,27.3873866" id="Fill-11" fill="#FFFFFF"></path>
            <path d="M117.21858,27.1406232 C117.34398,27.1406232 117.51558,27.1364357 117.67458,27.1304536 L117.70998,27.1292571 C118.05318,27.1172929 118.57158,27.0993464 119.66238,27.0993464 C120.17898,27.0993464 120.60498,27.1113107 120.98058,27.1214804 C121.34418,27.13165 121.75038,27.1406232 122.09478,27.1406232 C122.34618,27.1406232 122.53698,27.1023375 122.53698,26.6435071 C122.53698,26.1451946 122.31258,26.1858732 121.48038,26.1858732 C120.65898,26.1858732 120.65898,25.9531679 120.65898,25.1814714 L120.65898,20.5082214 C120.65898,20.3263643 120.67458,20.1026321 120.74838,19.987775 C120.98478,19.6216679 121.59018,19.2358196 122.01738,19.2358196 C122.22078,19.2358196 122.35218,19.3572571 122.53398,19.5253554 C122.77098,19.7449 123.06678,20.0182839 123.60678,20.0182839 C124.37118,20.0182839 124.82778,19.3883643 124.82778,18.7793821 C124.82778,17.9652125 124.21278,17.4178464 123.29658,17.4178464 C122.63178,17.4178464 121.89618,17.7582304 121.10958,18.4306232 C121.02378,18.5042036 120.84678,18.5903464 120.74658,18.5394982 C120.64578,18.4880518 120.65538,18.3169625 120.66498,18.2044982 C120.67338,18.0992125 120.68298,18.0064893 120.69078,17.9245339 L120.69378,17.8952214 C120.70938,17.7349 120.71898,17.6314089 120.71898,17.5446679 C120.71898,17.3843464 120.63978,17.1301054 120.42678,17.1301054 C120.29898,17.1301054 120.19518,17.1911232 120.05058,17.2760696 C119.75658,17.4495518 119.14458,17.8096768 117.49698,18.1422839 C117.18618,18.2050964 117.16218,18.3708018 117.16218,18.6358107 C117.16218,18.7476768 117.16218,19.0455875 117.53598,19.0904536 C118.42278,19.1789893 118.56558,19.4655339 118.56558,20.1175875 L118.56558,25.3459804 C118.56558,26.1152839 118.49478,26.1858732 117.72138,26.1858732 C117.21078,26.1858732 116.87178,26.1858732 116.87178,26.6632482 C116.87178,27.0149982 117.02658,27.1406232 117.21858,27.1406232" id="Fill-13" fill="#FFFFFF"></path>
            <path d="M125.74044,26.8149554 C125.76924,26.9710893 125.80464,27.1876429 126.01824,27.2456696 C126.20664,27.2965179 126.35904,27.2534464 126.82584,27.2534464 C127.21284,27.2534464 128.23704,27.3874464 128.61504,27.3874464 C131.72064,27.3874464 132.02184,25.0843214 132.02184,24.3784286 C132.02184,22.4150893 130.98144,22.0065089 129.54204,21.4417946 L129.54144,21.4417946 C129.15444,21.2904464 128.71584,21.1187589 128.25144,20.8974196 C127.93224,20.7376964 127.39824,20.3709911 127.39824,19.706375 C127.39824,18.8712679 127.93644,18.3723571 128.83944,18.3723571 C129.69444,18.3723571 130.34784,18.9071607 130.78044,19.9618125 L130.81764,20.0503482 C130.96704,20.4409821 131.18304,20.4092768 131.39904,20.4092768 C131.76624,20.4092768 131.83704,20.2555357 131.83704,20.0353929 C131.83704,19.9103661 131.80584,19.7536339 131.76624,19.5496429 C131.71044,19.2654911 131.63364,18.8760536 131.60904,18.3891071 C131.60904,17.9434375 131.55624,17.6862054 131.14104,17.6096339 C131.02524,17.5886964 129.81624,17.4176071 128.85924,17.4176071 C126.91944,17.4176071 125.51184,18.6828304 125.51184,20.426625 C125.51184,22.1405089 127.01244,22.7291518 128.21964,23.2023393 C129.24864,23.6061339 130.13724,23.9542946 130.13724,24.8103393 C130.13724,25.0813304 130.05684,26.4332946 128.46684,26.4332946 C127.27164,26.4332946 126.78084,25.6185268 126.45684,25.0131339 C126.26304,24.6512143 126.15744,24.3539018 125.86704,24.3539018 C125.48064,24.3539018 125.26704,24.4107321 125.26704,24.6320714 C125.26704,24.7511161 125.35884,25.1483304 125.56764,26.0552232 C125.65464,26.4309018 125.71164,26.6588214 125.74044,26.8149554" id="Fill-15" fill="#FFFFFF"></path>
            <path d="M133.20498,27.1403839 C133.29498,27.1403839 133.40358,27.1373929 133.56858,27.1320089 C133.96158,27.1194464 134.61858,27.0991071 135.99078,27.0991071 C137.04438,27.0991071 137.42778,27.1242321 137.59278,27.1355982 L137.62038,27.1367946 C137.65758,27.1391875 137.68338,27.1403839 137.70438,27.1403839 C137.98038,27.1403839 138.12078,26.9800625 138.12078,26.6636071 C138.12078,26.1856339 137.80998,26.1856339 137.41698,26.1856339 C136.73298,26.1856339 136.67718,26.1856339 136.67718,24.9760446 L136.67718,20.5295179 C136.67718,19.0297946 136.70838,18.0606875 136.77018,17.6521071 C136.77738,17.6102321 136.77978,17.5851071 136.77978,17.5653661 C136.77978,17.2644643 136.61178,17.1298661 136.44498,17.1298661 C136.31658,17.1298661 136.21278,17.1914821 136.06878,17.2758304 C135.77418,17.4499107 135.16098,17.8106339 133.51578,18.1420446 C133.30878,18.182125 133.18038,18.3711607 133.18038,18.6355714 C133.18038,18.7474375 133.18038,19.0453482 133.55478,19.0902143 C134.44098,19.1793482 134.58378,19.3187321 134.58378,19.9701875 L134.58378,22.9379286 C134.58378,24.6996696 134.51958,25.6986875 134.47578,25.8195268 C134.38758,26.0271071 134.28378,26.1856339 133.82478,26.1856339 C133.16118,26.1856339 132.82818,26.1856339 132.82818,26.7042857 C132.82818,27.0650089 133.03338,27.1403839 133.20498,27.1403839" id="Fill-17" fill="#FFFFFF"></path>
            <path d="M135.62052,14.6877161 C136.38732,14.6877161 136.90212,14.0153232 136.90212,13.3877964 C136.90212,12.758475 136.38732,12.0854839 135.62052,12.0854839 C134.85252,12.0854839 134.33652,12.758475 134.33652,13.3877964 C134.33652,14.0153232 134.85252,14.6877161 135.62052,14.6877161" id="Fill-19" fill="#FFFFFF"></path>
            <path d="M138.2499,19.0332045 C138.3207,19.0768741 138.3921,19.0732848 138.4539,19.0768741 L139.4775,19.0768741 C139.4799,19.0888384 139.4823,19.107383 139.4823,19.1349009 L139.4823,24.626508 C139.4823,26.4067937 140.4003,27.387267 142.0677,27.387267 C143.9745,27.387267 145.0227,26.410383 145.0227,26.0867491 C145.0227,25.8839545 144.8181,25.5483563 144.5853,25.5483563 C144.5103,25.5483563 144.4515,25.5806598 144.3237,25.6512491 C144.0885,25.7804634 143.6523,26.0215437 143.1819,26.0215437 C141.8307,26.0215437 141.5757,25.5836509 141.5757,23.2661687 L141.5757,19.2838562 C141.5757,19.2120705 141.5703,19.1193473 141.6219,19.0679009 C141.6729,19.0170527 141.7749,19.0140616 141.8475,19.0140616 C141.8481,19.0140616 141.8487,19.0140616 141.8493,19.0140616 C142.8393,19.020642 143.0979,19.0481598 143.2917,19.0595259 C143.3703,19.0643116 143.4219,19.0673027 143.4567,19.0673027 C143.9073,19.0673027 144.2247,19.0834545 144.2241,18.484642 C144.2235,17.8457491 143.9883,17.7769545 143.8317,17.7769545 C143.4195,17.7769545 143.0589,17.789517 142.8135,17.8026777 L142.7823,17.8044723 C142.5237,17.8182312 142.4259,17.8337848 141.8691,17.839767 L141.8661,17.839767 C141.7917,17.839767 141.6843,17.8433562 141.6327,17.7907134 C141.5805,17.7374723 141.5919,17.6345795 141.5949,17.5604009 C141.6231,16.8275884 141.6363,16.3849098 141.6363,16.206642 C141.6363,15.8931777 141.4059,15.729267 141.1785,15.729267 C140.9019,15.729267 140.7111,15.9541955 140.3643,16.3621777 C139.9779,16.8168205 139.3947,17.5035705 138.3219,18.3081687 C138.1923,18.4116598 138.1209,18.4989991 138.1209,18.7592223 C138.1209,18.8878384 138.1641,18.9805616 138.2499,19.0332045" id="Fill-21" fill="#FFFFFF"></path>
            <path d="M145.34736,18.8048062 C145.99176,18.8048062 146.42376,18.8478777 146.54316,19.1386098 C146.70636,19.5352259 146.83596,20.001833 147.01536,20.5904759 C147.34716,21.6774313 147.80196,23.1669848 148.64976,25.3396991 L148.71156,25.4970295 C148.93716,26.0701187 149.35776,27.1367348 149.35776,27.569842 C149.35776,28.4964759 148.46076,30.1702795 148.21416,30.3024848 C148.16196,30.2953062 148.07136,30.2438598 147.99456,30.2001902 C147.80736,30.0955027 147.55056,29.9525295 147.19236,29.9525295 C146.44356,29.9525295 145.78596,30.5698866 145.78596,31.2733866 C145.78596,32.058842 146.39856,32.6977348 147.15216,32.6977348 C147.96996,32.6977348 148.67436,32.3836723 150.30036,28.3247884 C150.54576,27.7014491 151.50756,25.6483777 152.43756,23.6635027 L152.47356,23.5875295 C153.18096,22.078833 154.01556,20.3123062 154.36236,19.5184759 C154.62036,18.9166723 154.76616,18.8406991 155.48496,18.8406991 C155.84676,18.8406991 156.01176,18.6708062 156.01236,18.3334134 C156.01236,18.2418866 156.03636,18.0271277 155.89356,17.8835562 C155.81796,17.807583 155.69376,17.7675027 155.57736,17.7675027 C155.24916,17.7675027 154.93116,17.7788687 154.65036,17.7884402 C154.06176,17.8093777 153.37596,17.8081813 152.74236,17.7884402 C152.42916,17.7788687 152.02956,17.7675027 151.69176,17.7675027 C151.46916,17.7675027 151.33896,17.9768777 151.33896,18.2448777 C151.33896,18.8299312 151.66356,18.8329223 151.76436,18.8329223 L151.94796,18.8317259 C152.32776,18.8323241 152.86896,18.8030116 153.05976,18.9926455 C153.11496,19.047083 153.14016,19.1170741 153.14016,19.2133866 C153.14016,19.4760027 152.74716,20.638333 150.97476,24.3382884 C150.92616,24.4387884 150.83496,24.496217 150.71916,24.4914312 C150.60756,24.4872437 150.51696,24.4226366 150.47736,24.3185473 C149.51256,21.8054491 148.87056,19.9461991 148.87056,19.0434937 C148.87056,18.9053063 148.92096,18.801217 149.67216,18.801217 C149.94396,18.801217 150.06696,18.5128777 150.06696,18.2448777 C150.06696,17.8141634 149.74656,17.7675027 149.60796,17.7675027 C149.31036,17.7675027 148.99536,17.7764759 148.64376,17.7872438 C148.29756,17.7980116 147.92916,17.8081813 147.56496,17.8081813 C147.10236,17.8081813 146.48856,17.7920295 146.02536,17.7800652 L145.88316,17.7764759 C145.68636,17.771092 145.44756,17.7675027 145.37316,17.7675027 C145.15596,17.7675027 145.02276,17.9242348 145.02276,18.223342 C145.02276,18.5104848 145.07316,18.8048062 145.34736,18.8048062" id="Fill-23" fill="#FFFFFF"></path>
            <path d="M170.18556,19.0910518 L171.17256,19.0910518 C171.35796,19.0910518 171.50196,19.1347214 171.50196,19.401525 L171.50196,25.6785875 C171.50196,25.9322304 171.37416,26.1709179 170.95056,26.1709179 C170.28396,26.1709179 170.21976,26.1774982 170.11896,26.2845786 C170.02056,26.3904625 170.01576,26.5531768 170.01576,26.6632482 C170.01576,27.0149982 170.14296,27.1406232 170.41296,27.1406232 C170.44776,27.1406232 170.48736,27.1388286 170.53896,27.1370339 L170.61156,27.1340429 C170.85636,27.1226768 171.36516,27.0993464 172.60116,27.0993464 C173.08896,27.0993464 173.48616,27.1095161 173.91816,27.1214804 C174.25116,27.1310518 174.64956,27.1406232 175.00896,27.1406232 C175.26036,27.1406232 175.47396,27.1023375 175.47396,26.6435071 C175.47396,26.2313375 175.24116,26.1858732 174.58356,26.1858732 C173.51736,26.1858732 173.59536,25.9531679 173.59536,25.1814714 L173.59536,19.3752036 C173.59536,19.3004268 173.62476,19.2310339 173.67876,19.1795875 C173.73216,19.1281411 173.80356,19.1006232 173.87616,19.1054089 C174.21396,19.1203643 174.62916,19.1430964 174.97176,19.1622393 L174.99876,19.1634357 C175.34136,19.1831768 175.69536,19.2220607 175.75116,19.2220607 C176.23236,19.2220607 176.36256,18.9863643 176.36256,18.5323196 C176.36256,18.0017036 176.18376,17.8904357 175.92516,17.8904357 L173.86536,17.8904357 C173.71656,17.8904357 173.59536,17.7695964 173.59536,17.6206411 L173.59536,15.4455339 C173.59536,14.1797125 173.79876,12.6704179 174.76896,12.6704179 C175.08396,12.6704179 175.19076,12.8056143 175.54176,13.09515 C176.12676,13.5797036 176.66196,13.6173911 176.81256,13.6173911 C177.51876,13.6173911 177.99396,13.1274536 177.99396,12.3988286 C177.99396,11.6426857 177.23436,11.3040964 176.48256,11.3040964 C176.09256,11.3040964 175.50996,11.3908375 175.17036,11.4751857 C172.74516,12.1110875 171.66516,13.7579714 171.44196,17.1600161 C171.39096,17.9245339 171.32316,17.8587304 170.53536,18.0585339 C169.99536,18.1961232 169.72836,18.2260339 169.72836,18.6136768 C169.72836,19.0366143 169.90476,19.0772929 170.18556,19.0910518" id="Fill-25" fill="#FFFFFF"></path>
            <path d="M81.59562,39.2588893 C81.59562,42.9229518 79.04142,45.2906839 75.08742,45.2906839 C73.29162,45.2906839 73.29162,44.7690411 73.29162,44.1660411 L73.29162,35.9962286 C73.27662,34.7178446 73.32942,33.9634964 73.65282,33.6374696 C73.99062,33.2970857 74.71782,33.2970857 76.03722,33.2970857 C79.31022,33.2970857 81.59562,35.7485679 81.59562,39.2588893 M84.27042,34.8386839 C82.64142,32.8430411 79.96602,31.8314607 76.31982,31.8314607 C75.01062,31.8314607 73.15842,31.9044429 72.14982,31.943925 C71.72262,31.9600768 71.41422,31.9720411 71.32602,31.9720411 C69.69102,31.9720411 67.90722,31.8960679 66.94902,31.8559875 L66.90222,31.8541929 C66.58302,31.8404339 66.37242,31.8314607 66.30042,31.8314607 C65.98242,31.8314607 65.77602,32.0916839 65.77602,32.4936839 C65.77602,32.7939875 65.77602,33.2970857 66.37122,33.2970857 C68.77542,33.2970857 69.29442,33.4819339 69.32682,35.4428804 L69.34602,36.2738 C69.37482,37.4361304 69.39702,38.3537911 69.39702,40.3799429 L69.39702,48.9673089 C69.39702,50.42755 69.36462,52.6002643 69.29262,54.3943089 C69.26322,55.1444696 69.24042,55.8395946 66.47562,55.8395946 C65.45022,55.8395946 65.28462,56.0758893 65.28462,56.6429964 C65.28462,56.9540679 65.36202,57.3064161 65.77182,57.3064161 C66.54822,57.3064161 67.07622,57.2358268 71.32602,57.2358268 C74.48382,57.2358268 76.83882,57.3064161 77.69202,57.3064161 C78.18162,57.3064161 78.24882,56.8870679 78.24882,56.5759964 C78.24882,55.9400946 77.94762,55.8395946 76.82562,55.8395946 C73.40262,55.8395946 73.42362,55.1564339 73.36182,53.9277018 L73.35942,53.7237107 C73.32762,52.7360589 73.29402,51.7155054 73.29162,46.767675 C73.29162,46.6887107 73.32642,46.6133357 73.38702,46.5618893 C73.44702,46.5110411 73.52742,46.4889071 73.60542,46.5008714 C74.69202,46.6749518 75.87822,46.7563089 77.33802,46.7563089 C79.81902,46.7563089 81.91422,46.0797286 83.39742,44.8001482 C84.97362,43.4404071 85.80702,41.4274161 85.80702,38.9777286 C85.80702,38.6002554 85.73322,36.6291393 84.27042,34.8386839" id="Fill-27" fill="#FFFFFF"></path>
            <path d="M93.55872,55.9799357 C92.25432,55.9799357 92.14932,55.8148286 92.14932,53.7695339 L92.14932,46.1985339 C92.14932,43.6375786 92.20452,41.9799268 92.31372,41.2734357 C92.32212,41.2154089 92.32692,41.1801143 92.32692,41.1519982 C92.32692,40.7416232 92.11632,40.5585696 91.90752,40.5585696 C91.73232,40.5585696 91.58112,40.6471054 91.34352,40.7870875 C90.83472,41.0867929 89.77692,41.7107304 86.94552,42.2802304 C86.66472,42.3370607 86.49672,42.5960875 86.49672,42.9735607 C86.49672,43.1566143 86.49672,43.5370786 87.00012,43.6010875 C88.61532,43.7614089 88.88772,44.3153554 88.88772,45.4974268 L88.88772,50.2992929 C88.88772,52.8387125 88.80252,55.0186054 88.69272,55.2650696 C88.49412,55.7286857 88.23612,55.9799357 87.44232,55.9799357 C86.17212,55.9799357 85.89972,56.0433464 85.89972,56.7133464 C85.89972,56.8754625 85.89972,57.3061768 86.38812,57.3061768 C86.54112,57.3061768 86.72832,57.3001946 86.98752,57.2918196 C87.65052,57.2708821 88.75992,57.2361857 91.13352,57.2361857 C92.91492,57.2361857 93.58272,57.2780607 93.86652,57.2966054 C93.95472,57.3025875 94.01052,57.3061768 94.05252,57.3061768 C94.61112,57.3061768 94.61112,56.8240161 94.61112,56.6427571 C94.61112,56.0056589 94.30752,55.9799357 93.55872,55.9799357" id="Fill-29" fill="#FFFFFF"></path>
            <path d="M90.5007,31.9719214 C89.5185,31.9719214 88.4667,32.8016446 88.4667,34.0363589 C88.4667,35.2716714 89.5185,36.1007964 90.5007,36.1007964 C91.4841,36.1007964 92.5365,35.2716714 92.5365,34.0363589 C92.5365,32.8016446 91.4841,31.9719214 90.5007,31.9719214" id="Fill-31" fill="#FFFFFF"></path>
            <path d="M105.48312,54.8939375 C105.39372,54.8939375 105.31032,54.94 105.10812,55.0506696 C104.69592,55.2779911 103.92972,55.6997321 103.09212,55.6997321 C100.44132,55.6997321 100.20492,54.4452768 100.20492,50.8595804 L100.20492,43.9777232 C100.20492,43.9059375 100.23312,43.8383393 100.28472,43.7868929 C100.33692,43.7354464 100.41012,43.7079286 100.47852,43.7079286 C102.43692,43.7216875 103.50972,43.8174018 103.96752,43.8580804 C104.14512,43.8748304 104.23572,43.8814107 104.29812,43.8826071 C105.17772,43.8987589 105.45552,43.4877857 105.45552,42.7986429 C105.45552,42.5653393 105.45552,41.8552589 104.89632,41.8552589 L100.47792,41.8552589 C100.40532,41.8552589 100.33692,41.8265446 100.28592,41.7750982 C100.23432,41.7230536 100.20672,41.6548571 100.20732,41.581875 C100.21632,40.6121696 100.25292,40.0229286 100.28052,39.5790536 C100.29792,39.2949018 100.31232,39.069375 100.31232,38.8378661 C100.31232,38.3832232 99.98472,38.1762411 99.68112,38.1762411 C99.28032,38.1762411 98.95272,38.5608929 98.40852,39.2003839 C97.74612,39.9792589 96.74532,41.1559464 94.91292,42.5312411 C94.67352,42.7220714 94.62312,42.8686339 94.62312,43.1838929 C94.62312,43.5272679 94.83432,43.7061339 95.04252,43.7061339 L96.71652,43.7061339 C96.89112,43.7061339 96.94332,43.7539911 96.94332,43.9083304 L96.94332,53.1734732 C96.94332,56.9362411 99.25452,57.7258839 101.19372,57.7258839 C104.44812,57.7258839 106.07532,56.0556696 106.07532,55.6620446 C106.07532,55.3796875 105.78312,54.8939375 105.48312,54.8939375" id="Fill-33" fill="#FFFFFF"></path>
            <path d="M117.3495,54.8939375 C117.2607,54.8939375 117.1767,54.94 116.9745,55.0506696 C116.5623,55.2779911 115.7961,55.6997321 114.9585,55.6997321 C112.3077,55.6997321 112.0713,54.4452768 112.0713,50.8595804 L112.0713,43.9777232 C112.0713,43.9059375 112.0995,43.8383393 112.1511,43.7868929 C112.2033,43.7354464 112.2765,43.7079286 112.3449,43.7079286 C114.3033,43.7216875 115.3761,43.8174018 115.8339,43.8580804 C116.0115,43.8748304 116.1021,43.8814107 116.1645,43.8826071 C117.0441,43.8987589 117.3219,43.4877857 117.3219,42.7986429 C117.3219,42.5653393 117.3219,41.8552589 116.7627,41.8552589 L112.3443,41.8552589 C112.2717,41.8552589 112.2033,41.8265446 112.1523,41.7750982 C112.1007,41.7230536 112.0731,41.6548571 112.0737,41.581875 C112.0827,40.6121696 112.1193,40.0229286 112.1469,39.5790536 C112.1643,39.2949018 112.1787,39.069375 112.1787,38.8378661 C112.1787,38.3832232 111.8511,38.1762411 111.5475,38.1762411 C111.1467,38.1762411 110.8191,38.5608929 110.2749,39.2003839 C109.6125,39.9792589 108.6117,41.1559464 106.7793,42.5312411 C106.5399,42.7220714 106.4895,42.8686339 106.4895,43.1838929 C106.4895,43.5272679 106.7007,43.7061339 106.9089,43.7061339 L108.5829,43.7061339 C108.7575,43.7061339 108.8097,43.7539911 108.8097,43.9083304 L108.8097,53.1734732 C108.8097,56.9362411 111.1209,57.7258839 113.0601,57.7258839 C116.3145,57.7258839 117.9423,56.0556696 117.9423,55.6620446 C117.9423,55.3796875 117.6495,54.8939375 117.3495,54.8939375" id="Fill-35" fill="#FFFFFF"></path>
            <path d="M125.8995,47.8920786 C125.8995,47.8920786 124.4805,47.3357393 123.6879,46.9588643 C123.1137,46.6735161 122.1513,46.0124893 122.1513,44.7975161 C122.1513,43.3031768 123.1497,42.3753464 124.7565,42.3753464 C126.2781,42.3753464 127.4367,43.3175339 128.1993,45.1767839 L128.2173,45.2204536 C128.4393,45.7977304 128.7687,45.8455875 129.1149,45.8455875 C129.4707,45.8455875 129.7095,45.6493732 129.7095,45.3580429 C129.7095,45.1576411 129.6579,44.8944268 129.5925,44.5624179 C129.4965,44.0718821 129.3645,43.4012839 129.3225,42.5536143 C129.3225,42.17315 129.1779,41.4953732 128.6385,41.3721411 C128.4717,41.3284714 126.4059,41.0491054 124.7907,41.0491054 C121.5747,41.0491054 119.2407,43.1410607 119.2407,46.0232571 C119.2407,48.8402482 121.6383,49.7806411 123.7569,50.6109625 C125.4837,51.2887393 127.1151,51.9294268 127.1151,53.4889714 C127.1151,55.7873107 125.2347,56.4004804 124.1235,56.4004804 C121.9971,56.4004804 121.1865,54.8881946 120.6495,53.8873821 C120.3303,53.2915607 120.0993,52.8608464 119.6943,52.8608464 C119.4867,52.8608464 118.8537,52.8608464 118.8537,53.2778018 C118.8537,53.487775 119.6217,56.8551232 119.6619,57.0639 C119.7021,57.2720786 119.8587,57.4461589 120.0447,57.4461589 C121.4901,57.4461589 122.9031,57.7261232 124.0869,57.7261232 C129.5979,57.7261232 130.0257,53.9190875 130.0257,52.7525696 C130.0257,49.5114446 128.2953,48.8324714 125.8995,47.8920786" id="Fill-37" fill="#FFFFFF"></path>
            <path d="M144.02694,49.7031125 C144.02694,54.2100589 142.63434,56.4007196 139.76934,56.4007196 C137.30694,56.4007196 136.10994,54.9434696 136.10994,51.9464161 L136.10994,45.5676571 C136.10994,43.5241571 137.39874,42.3049964 139.55694,42.3049964 C143.25174,42.3049964 144.02694,46.3279875 144.02694,49.7031125 M145.29654,42.7422911 C143.94894,41.5147554 142.12374,40.8387732 140.15634,40.8387732 C138.67254,40.8387732 137.59134,41.1594161 136.54254,41.9107732 C136.45614,41.9723893 136.34874,41.9807643 136.25514,41.9329071 C136.16454,41.8868446 136.10994,41.7977107 136.10994,41.6948179 L136.10994,35.9992196 C136.10994,32.8167196 136.18014,32.3178089 136.26774,31.5179964 C136.27134,31.4862911 136.28154,31.3642554 136.28154,31.3163982 C136.28154,30.8791036 136.05954,30.8109071 135.86634,30.8109071 C135.71454,30.8109071 135.48294,30.9072196 135.06234,31.0818982 C134.24334,31.4210857 132.87534,32.0043446 130.94034,32.3225946 C130.55274,32.3860054 130.49154,32.6378536 130.49154,33.0153268 C130.49154,33.3616929 130.67154,33.5896125 130.99674,33.6428536 L131.07294,33.6500321 C132.84834,33.8103536 132.84834,33.8103536 132.84834,36.6303357 L132.84834,54.924925 C132.84834,55.3873446 132.77754,56.4778893 132.77754,56.7129875 C132.77754,56.8768982 132.77754,57.3758089 133.26534,57.3758089 C133.72794,57.3758089 133.82214,57.1066125 133.96614,56.8768982 C134.13594,56.6065054 134.29554,56.3504696 134.70774,56.3504696 C135.07314,56.3504696 135.47694,56.5520679 136.08354,56.7985321 C137.10234,57.2113 138.37014,57.7263625 140.05194,57.7263625 C141.91554,57.7263625 143.77854,57.0120946 145.16394,55.7672107 C146.87574,54.2280054 147.78054,51.9613714 147.78054,49.2125768 C147.78054,46.4607911 146.92134,44.2228714 145.29654,42.7422911" id="Fill-39" fill="#FFFFFF"></path>
            <path d="M165.87102,55.1740812 C165.75942,55.1740812 164.73822,55.3140634 164.47062,55.3140634 C163.84602,55.3140634 163.79922,54.8827509 163.79922,54.2247152 L163.79922,47.6353848 C163.79922,45.6223937 164.00622,43.4783937 164.08422,42.6708045 C164.10822,42.4171616 164.11542,42.342983 164.11542,42.3088848 C164.11542,41.8644116 163.86042,41.6101705 163.41582,41.6101705 C162.97122,41.6101705 162.51282,41.6376884 162.06882,41.6640098 C161.63142,41.6891348 161.17962,41.7154562 160.74462,41.7154562 C159.31242,41.7154562 158.31522,41.6101705 157.76622,41.6101705 C157.31262,41.6101705 157.23102,41.915858 157.23102,42.518858 C157.23102,43.0763937 157.87842,43.0763937 158.56362,43.0763937 C160.28922,43.0763937 160.53702,43.1936437 160.53702,44.9715366 L160.53702,54.0500366 C160.53702,54.9449652 158.52642,55.6993134 157.26342,55.6993134 C154.96362,55.6993134 154.02522,54.5615098 154.02522,51.7714384 L154.02522,42.3088848 C154.02522,41.8261259 153.95502,41.6101705 153.53802,41.6101705 C153.34602,41.6101705 153.03942,41.6257241 152.65122,41.644867 L152.63022,41.6460634 C152.04522,41.6753759 151.24422,41.7154562 150.47922,41.7154562 C149.73702,41.7154562 149.24982,41.672983 148.87542,41.6400812 C148.68522,41.6233312 148.53462,41.6101705 148.40502,41.6101705 C147.72342,41.6101705 147.81042,42.2466705 147.81042,42.518858 C147.81042,43.021358 148.49802,43.0763937 148.79202,43.0763937 C150.42402,43.0763937 150.76362,43.0763937 150.76362,46.1637777 L150.76362,51.630858 C150.76362,55.9033045 152.16102,57.7260634 155.43462,57.7260634 C156.67662,57.7260634 158.66322,57.197242 160.41942,56.0235455 C160.38942,56.3136795 160.36002,56.6450902 160.36002,56.9226616 C160.36002,57.2606527 160.61382,57.6219741 160.99122,57.6219741 C161.50122,57.6219741 162.94122,57.0554652 165.06462,56.7073045 C166.07862,56.5493759 166.39962,56.4793848 166.39962,56.0462777 C166.39962,55.505492 166.32342,55.1740812 165.87102,55.1740812" id="Fill-41" fill="#FFFFFF"></path>
            <path d="M178.2492,41.0491054 C176.9808,41.0491054 175.5576,41.8010607 174.0198,43.2846321 C173.9364,43.3653911 173.7936,43.4168375 173.688,43.3701768 C173.5836,43.3229179 173.5554,43.1931054 173.5608,43.0788464 C173.589,42.4812304 173.6334,42.0331679 173.6664,41.6993643 C173.6904,41.4672571 173.7114,41.2656589 173.7114,41.1167036 C173.7114,40.9348464 173.7744,40.5585696 173.3622,40.5585696 C173.1858,40.5585696 173.0328,40.6489 172.7982,40.7870875 C172.2894,41.0867929 171.2304,41.7113286 168.4002,42.2802304 C168.1194,42.3370607 167.9514,42.5960875 167.9514,42.9741589 C167.9514,43.1566143 167.9514,43.5370786 168.4548,43.6010875 C170.07,43.7614089 170.3424,44.3153554 170.3424,45.4974268 L170.3424,54.3994536 C170.3424,55.7885071 170.1498,55.9799357 168.7578,55.9799357 C167.8758,55.9799357 167.46,55.9799357 167.46,56.6421589 C167.46,57.2415696 167.826,57.3061768 167.9838,57.3061768 C168.1992,57.3061768 168.4002,57.2995964 168.705,57.2882304 C169.2876,57.2672929 170.1672,57.2361857 172.062,57.2361857 C172.905,57.2361857 173.6046,57.2547304 174.2808,57.2726768 L174.3084,57.273275 C174.8742,57.2894268 175.4586,57.3061768 176.07,57.3061768 C176.6052,57.3061768 176.8032,57.2535339 176.8032,56.6080607 C176.8032,55.9105429 176.5086,55.9799357 175.1544,55.9799357 C173.604,55.9799357 173.604,55.4355607 173.604,54.1194893 L173.604,46.1632393 C173.604,45.82465 173.6364,45.42265 173.7972,45.1785786 C174.42,44.2339982 175.596,43.8469536 176.07,43.8469536 C176.4744,43.8469536 176.7288,44.0814536 177.0528,44.3805607 C177.438,44.7364982 177.9174,45.1785786 178.7748,45.1785786 C179.9838,45.1785786 180.7062,44.1819536 180.7062,43.2188286 C180.7062,41.9003643 179.742,41.0491054 178.2492,41.0491054" id="Fill-43" fill="#FFFFFF"></path>
            <g id="Group-47" transform="translate(180.600000, 40.781464)">
                <mask id="mask-2" fill="white">
                    <use xlink:href="#path-1"></use>
                </mask>
                <g id="Clip-46"></g>
                <path d="M7.35672,10.6423518 C4.78512,10.6423518 4.40112,8.15916429 4.40112,6.67858393 C4.40112,3.23406607 5.44332,1.48787857 7.49772,1.48787857 C9.97632,1.48787857 10.24392,4.30905714 10.24392,5.5216375 C10.24392,7.43412857 9.86892,10.6423518 7.35672,10.6423518 M2.43372,20.6785929 C2.43372,18.9443696 4.24692,17.5768518 4.24692,17.5768518 L9.44052,17.5768518 C11.92752,17.5768518 12.95112,18.0996911 12.95112,19.9439857 C12.95112,22.1950661 11.20512,23.6971821 7.28832,23.6971821 C2.78352,23.6971821 2.43372,21.3868786 2.43372,20.6785929 M14.15652,2.93615536 C14.49612,3.44643214 14.91912,4.08233393 15.68772,4.08233393 C16.52352,4.08233393 17.22972,3.42549464 17.22972,2.64841429 C17.22972,1.9957625 16.95312,0.477494643 14.38752,0.477494643 C13.75572,0.477494643 12.88632,0.578592857 11.76132,1.36823571 C11.66832,1.43344107 11.54892,1.43523571 11.45652,1.37421786 C10.31532,0.616280357 8.78292,0.163432143 7.35672,0.163432143 C5.75412,0.163432143 4.13772,0.779592857 2.92272,1.85398571 C1.63632,2.99059286 0.92832,4.50467321 0.92832,6.11805714 C0.92832,8.32666429 1.65432,9.89219107 3.14772,10.9037714 C3.22392,10.9552179 3.30372,11.0276018 3.30552,11.1179321 C3.30672,11.2046732 3.23292,11.2944054 3.16272,11.34645 C1.80432,12.3460661 0.96192,13.3385036 0.96192,15.1959589 C0.96192,16.0765304 1.56192,16.8643786 2.45472,17.2592 C2.54112,17.2968875 2.64972,17.3614946 2.65932,17.4530214 C2.66832,17.5349768 2.60592,17.6354768 2.54232,17.6994857 C1.22952,19.0125661 0.01452,20.2975304 0.01452,22.2219857 C0.01452,24.5777536 1.56552,25.7233339 4.75632,25.7233339 C6.24852,25.7233339 9.11412,25.5342982 11.53932,24.2660839 C13.91712,23.0241911 15.12252,21.1685304 15.12252,18.6811554 C15.12252,18.2552268 15.05112,17.1120393 14.49072,16.3319679 C13.67232,15.1911732 12.25032,14.5678339 10.13472,14.5678339 L4.93152,14.5678339 C3.89292,14.5678339 3.48792,14.3016286 3.48792,13.6184679 C3.48792,12.6015036 4.14012,12.0026911 4.56612,11.7197357 C4.70172,11.6288071 4.87032,11.6341911 4.95192,11.6611107 C5.73012,11.9213339 6.85032,11.9673964 7.25232,11.9673964 C11.30052,11.9673964 13.71732,9.63675357 13.71732,5.73220893 C13.71732,4.90248571 13.15032,3.23227143 12.48612,2.38041429 C12.62112,2.18360179 12.82332,2.02268214 13.24332,2.02268214 C13.72752,2.02268214 13.89072,2.53595 14.15652,2.93615536" id="Fill-45" fill="#FFFFFF" mask="url(#mask-2)"></path>
            </g>
            <path d="M215.44188,55.9799357 C213.36528,55.9799357 213.36528,55.3948821 213.36528,54.9252839 L213.36528,46.5137929 C213.36528,42.9897125 211.64268,41.0491054 208.51668,41.0491054 C206.50068,41.0491054 204.97188,41.8441321 203.61948,42.7031679 C203.53548,42.7576054 203.43228,42.7599982 203.34468,42.7121411 C203.25708,42.6642839 203.20428,42.5757482 203.20428,42.4758464 L203.20428,35.9989804 C203.20428,33.4422125 203.34588,31.8144714 203.37768,31.3263286 C203.40948,30.8375875 203.26608,30.6988018 202.96248,30.6988018 C202.80888,30.6988018 202.57788,30.7951143 202.15728,30.9697929 C201.33828,31.3089804 199.97328,31.9119804 198.03408,32.2104893 C197.58828,32.2786857 197.58588,32.5269446 197.58588,32.9032214 C197.58588,33.2489893 197.76648,33.4775071 198.09228,33.53015 C199.90848,33.6952571 199.94268,33.6982482 199.94268,36.6306946 L199.94268,48.8970786 C199.94268,51.0919268 199.85208,54.9761321 199.74828,55.2644714 C199.59888,55.6108375 199.37988,55.9799357 198.67248,55.9799357 C197.40348,55.9799357 197.13108,56.0433464 197.13108,56.7133464 C197.13108,56.8754625 197.13108,57.3061768 197.61828,57.3061768 C197.70708,57.3061768 197.83008,57.3013911 198.02268,57.2942125 C198.57108,57.2756679 199.71228,57.2361857 202.18908,57.2361857 C204.11928,57.2361857 204.80808,57.2786589 205.10328,57.2972036 C205.18848,57.3025875 205.24248,57.3061768 205.28268,57.3061768 C205.84188,57.3061768 205.84188,56.8240161 205.84188,56.6427571 C205.84188,55.9799357 205.59168,55.9799357 204.61368,55.9799357 C203.30988,55.9799357 203.20428,55.8148286 203.20428,53.7695339 L203.20368,44.459525 C203.45748,44.0288107 204.91488,43.3911143 206.37168,43.3911143 C209.85048,43.3911143 210.10188,45.3652214 210.10188,48.6165161 L210.10188,54.8905875 C210.10188,55.8429446 209.98308,55.9799357 208.19148,55.9799357 C207.67548,55.9799357 207.60528,56.3562125 207.60528,56.6780518 C207.60528,57.2607125 207.95328,57.3061768 208.05948,57.3061768 C208.12908,57.3061768 208.21608,57.3019893 208.36008,57.2948107 C208.76688,57.2756679 209.61348,57.2361857 211.75008,57.2361857 C212.81568,57.2361857 213.46488,57.2583196 214.03788,57.2780607 L214.08888,57.2798554 C214.50348,57.2936143 214.92948,57.3061768 215.36808,57.3061768 C216.00168,57.3061768 215.99988,56.8958018 215.99988,56.6804446 C215.99988,56.3424536 215.95668,55.9799357 215.44188,55.9799357" id="Fill-48" fill="#FFFFFF"></path>
            <path d="M167.33262,22.403125 C167.33262,25.7297946 165.90102,26.4279107 164.69982,26.4279107 C162.54162,26.4279107 162.08802,24.2390446 162.08802,22.403125 C162.08802,18.6690714 164.08722,18.3789375 164.69982,18.3789375 C167.14302,18.3789375 167.33262,21.4591429 167.33262,22.403125 M164.69982,17.4092321 C161.84502,17.4092321 159.69222,19.5562232 159.69222,22.403125 C159.69222,25.2960893 161.79822,27.3964196 164.69982,27.3964196 C167.70762,27.3964196 169.72842,25.3900089 169.72842,22.403125 C169.72842,19.5095625 167.61342,17.4092321 164.69982,17.4092321" id="Fill-50" fill="#FFFFFF"></path>
            <mask id="mask-4" fill="white">
                <use xlink:href="#path-3"></use>
            </mask>
            <g id="Clip-53"></g>
            <polygon id="Fill-52" fill="#FFFFFF" mask="url(#mask-4)" points="23.5182 5.78114286 29.5254 5.78114286 29.5254 4.3424375 23.5182 4.3424375"></polygon>
            <path d="M29.51952,3.4144875 C29.51952,2.65355893 30.64512,2.3341125 30.64512,0.988728571 L30.64512,-0.000119642857 L28.90032,-0.000119642857 L28.90032,0.988728571 L27.39192,0.988728571 L27.39192,-0.000119642857 L25.64652,-0.000119642857 L25.64652,0.988728571 L24.13812,0.988728571 L24.13812,-0.000119642857 L22.39332,-0.000119642857 L22.39332,0.988728571 C22.39332,2.2838625 23.51832,2.65355893 23.51832,3.4144875 L29.51952,3.4144875 Z" id="Fill-54" fill="#FFFFFF" mask="url(#mask-4)"></path>
            <polygon id="Fill-55" fill="#FFFFFF" mask="url(#mask-4)" points="12.7476 8.12913393 18.7392 8.12913393 18.7392 6.69042857 12.7476 6.69042857"></polygon>
            <path d="M18.73914,5.78108304 C18.73914,5.02015446 19.87434,4.70070804 19.87434,3.35532411 L19.87434,2.36647589 L18.12894,2.36647589 L18.12894,3.35532411 L16.62054,3.35532411 L16.62054,2.36647589 L14.87574,2.36647589 L14.87574,3.35532411 L13.36674,3.35532411 L13.36674,2.36647589 L11.62194,2.36647589 L11.62194,3.35532411 C11.62194,4.65045804 12.74754,5.02015446 12.74754,5.78108304 L18.73914,5.78108304 Z" id="Fill-56" fill="#FFFFFF" mask="url(#mask-4)"></path>
            <polygon id="Fill-57" fill="#FFFFFF" mask="url(#mask-4)" points="34.1772 8.12913393 40.1688 8.12913393 40.1688 6.69042857 34.1772 6.69042857"></polygon>
            <path d="M40.16892,5.78108304 C40.16892,5.02015446 41.30412,4.70070804 41.30412,3.35532411 L41.30412,2.36647589 L39.55932,2.36647589 L39.55932,3.35532411 L38.05032,3.35532411 L38.05032,2.36647589 L36.30552,2.36647589 L36.30552,3.35532411 L34.79652,3.35532411 L34.79652,2.36647589 L33.05232,2.36647589 L33.05232,3.35532411 C33.05232,4.65045804 34.17732,5.02015446 34.17732,5.78108304 L40.16892,5.78108304 Z" id="Fill-58" fill="#FFFFFF" mask="url(#mask-4)"></path>
            <path d="M50.38332,27.454925 L50.38332,29.1365054 C50.38332,35.5170589 49.11372,41.3083714 46.60992,46.3495232 C46.46412,46.6432464 46.31292,46.9339786 46.15812,47.2229161 C44.19792,50.8935589 41.56212,54.1657911 38.31132,56.9588536 C33.11412,61.4251214 27.84072,63.350175 26.46312,63.802425 C25.08612,63.3495768 19.81212,61.4209339 14.61492,56.9540679 C11.36592,54.1610054 8.73192,50.8905679 6.77112,47.2229161 C6.61572,46.9321839 6.46272,46.6390589 6.31632,46.3435411 C3.81192,41.3023893 2.54292,35.5134696 2.54292,29.1365054 L2.54292,27.454925 L2.54292,14.4216304 L24.40992,14.4216304 L24.40992,11.40005 C24.40992,10.2724161 25.32672,9.35894286 26.45772,9.35894286 C27.58812,9.35894286 28.50492,10.2724161 28.50492,11.40005 L28.50492,14.4216304 L50.38332,14.4216304 L50.38332,27.454925 Z M41.30412,11.9372464 L41.30412,11.6124161 C41.30412,10.2676304 40.28232,9.70471071 40.16892,9.08256786 L34.17732,9.08256786 C34.07712,9.72146071 33.05232,10.3172821 33.05232,11.6124161 L33.05232,11.9372464 L31.79052,11.9372464 L31.79052,11.6046393 C31.79052,9.55874643 33.04092,9.27758571 33.04092,7.98185357 L33.04092,6.69030893 L31.29312,6.69030893 L31.29312,7.69770179 L30.17052,7.69770179 L30.17052,6.69030893 L28.41732,6.69030893 L28.41732,7.69770179 L27.33012,7.69770179 L27.33012,6.69030893 L26.45772,6.69030893 L25.58472,6.69030893 L25.58472,7.69770179 L24.49752,7.69770179 L24.49752,6.69030893 L22.74432,6.69030893 L22.74432,7.69770179 L21.62172,7.69770179 L21.62172,6.69030893 L19.87332,6.69030893 L19.87332,7.98185357 C19.87332,9.27758571 21.12432,9.55874643 21.12432,11.6046393 L21.12432,11.9372464 L19.87392,11.9372464 L19.87392,11.6124161 C19.87392,10.2676304 18.85212,9.70471071 18.73932,9.08256786 L12.74712,9.08256786 C12.64692,9.72146071 11.62212,10.3172821 11.62212,11.6124161 L11.62212,11.9372464 L0.00012,11.9372464 L0.00012,29.1365054 C0.00012,35.9340143 1.36932,42.1237375 4.06932,47.5327911 C6.23532,51.8710411 9.25332,55.7115768 13.03992,58.9473179 C19.47672,64.4473 25.85112,66.2760411 26.11932,66.3508179 L26.46252,66.4471304 L26.80632,66.3514161 C27.07452,66.2760411 33.44892,64.4514875 39.88572,58.9527018 C43.67292,55.7181571 46.69092,51.8782196 48.85692,47.5387732 C51.55692,42.1291214 52.92612,35.9376036 52.92612,29.1365054 L52.92612,11.9372464 L41.30412,11.9372464 Z" id="Fill-59" fill="#FFFFFF" mask="url(#mask-4)"></path>
            <path d="M44.70822,34.7418929 L39.50142,34.7418929 L39.50142,39.9343929 L44.70822,39.9343929 L44.70822,45.1256964 L39.50142,45.1256964 L39.50142,39.9343929 L34.29342,39.9343929 L34.29342,45.1256964 L29.08902,45.1256964 L29.08902,39.9343929 L23.88102,39.9343929 L23.88102,34.7418929 L18.67602,34.7418929 L18.67602,29.5523839 L23.88102,29.5523839 L23.88102,34.7418929 L29.08902,34.7418929 L29.08902,29.5523839 L34.29342,29.5523839 L34.29342,34.7418929 L39.50142,34.7418929 L39.50142,29.5523839 L44.70822,29.5523839 L44.70822,34.7418929 Z M23.86482,45.1256964 L18.65922,45.1256964 L18.65922,39.9343929 L13.45302,39.9343929 L13.45302,45.1256964 L8.24562,45.1256964 L8.24562,39.9343929 L13.45302,39.9343929 L13.45302,34.7418929 L8.24562,34.7418929 L8.24562,29.5523839 L13.45302,29.5523839 L13.45302,34.7418929 L18.65922,34.7418929 L18.65922,39.9343929 L23.86482,39.9343929 L23.86482,45.1256964 Z M2.54322,27.4550446 L2.54322,29.1360268 C2.54322,35.5135893 3.81222,41.3025089 6.31602,46.3436607 C6.46302,46.6391786 6.61542,46.9317054 6.77082,47.2230357 L46.15842,47.2230357 C46.31262,46.9340982 46.46442,46.6433661 46.61022,46.3496429 C49.11402,41.3084911 50.38302,35.5165804 50.38302,29.1360268 L50.38302,27.4550446 L2.54322,27.4550446 Z" id="Fill-60" fill="#FDB71C" mask="url(#mask-4)"></path>
            <polygon id="Fill-61" fill="#FBB424" mask="url(#mask-4)" points="29.0892 39.9343929 34.293 39.9343929 34.293 34.7418929 29.0892 34.7418929"></polygon>
            <path d="M26.4993,49.8275411 C24.3465,49.8275411 22.5951,51.5737286 22.5951,53.7201214 C22.5951,55.8665143 24.3465,57.6085143 26.4993,57.6085143 C28.6521,57.6085143 30.4029,55.8665143 30.4029,53.7201214 C30.4029,51.5737286 28.6521,49.8275411 26.4993,49.8275411" id="Fill-62" fill="#FFFFFF" mask="url(#mask-4)"></path>
            <path d="M13.2249,17.0671134 C11.0721,17.0671134 9.3207,18.8133009 9.3207,20.9578991 C9.3207,23.104292 11.0721,24.8504795 13.2249,24.8504795 C15.3777,24.8504795 17.1291,23.104292 17.1291,20.9578991 C17.1291,18.8133009 15.3777,17.0671134 13.2249,17.0671134" id="Fill-63" fill="#FFFFFF" mask="url(#mask-4)"></path>
            <path d="M39.73068,17.0671134 C37.57788,17.0671134 35.82588,18.8133009 35.82588,20.9578991 C35.82588,23.104292 37.57788,24.8504795 39.73068,24.8504795 C41.88348,24.8504795 43.63368,23.104292 43.63368,20.9578991 C43.63368,18.8133009 41.88348,17.0671134 39.73068,17.0671134" id="Fill-64" fill="#FFFFFF" mask="url(#mask-4)"></path>
        </g>
    </g>
</svg>